<svg version="1.1" id="Layer_1" xmlns="http://www.w3.org/2000/svg" xmlns:xlink="http://www.w3.org/1999/xlink" x="0px" y="0px"
	 width="100%" viewBox="0 0 1728 2304" enable-background="new 0 0 1728 2304" xml:space="preserve">
<path fill="#FFFFFF" opacity="1.000000" stroke="none" 
	d="
M845.000000,2305.000000 
	C563.333313,2305.000000 282.166656,2305.000000 1.000000,2305.000000 
	C1.000000,1537.000000 1.000000,769.000000 1.000000,1.000000 
	C577.000000,1.000000 1153.000000,1.000000 1729.000000,1.000000 
	C1729.000000,769.000000 1729.000000,1537.000000 1729.000000,2305.000000 
	C1434.500000,2305.000000 1140.000000,2305.000000 845.000000,2305.000000 
M949.953552,1427.576416 
	C961.694092,1422.949829 965.788940,1413.196777 966.960327,1401.711670 
	C968.168335,1389.867188 968.645569,1377.938232 970.150696,1366.136597 
	C972.045959,1351.275269 974.644226,1336.503174 976.966248,1321.696777 
	C980.557434,1298.796875 988.534973,1277.564209 1000.437744,1257.644165 
	C1010.608215,1240.622925 1024.948975,1227.215698 1037.872314,1212.556030 
	C1052.631592,1195.813599 1064.160522,1176.972656 1072.894653,1156.487183 
	C1085.419678,1127.110229 1090.784668,1096.419312 1090.175659,1064.442505 
	C1089.848877,1047.287109 1087.869751,1030.434448 1083.587769,1013.980835 
	C1073.564209,975.464539 1054.517212,941.819275 1026.550781,913.427246 
	C1005.882263,892.444153 981.833557,876.333862 954.636047,864.958313 
	C926.363220,853.133057 896.969299,847.163818 866.273560,848.009033 
	C856.971863,848.265137 847.548401,855.934326 846.299377,864.944519 
	C844.617432,877.078125 843.553040,889.296936 842.190735,901.475464 
	C841.377625,908.743713 839.143127,914.969055 831.623901,918.206543 
	C820.497620,922.996826 809.459656,928.009521 798.531311,933.235352 
	C792.991150,935.884644 787.992554,935.735779 783.287231,931.881104 
	C773.422119,923.799316 763.520325,915.754211 753.877136,907.412415 
	C746.099854,900.684814 735.007629,899.633362 728.701782,905.864929 
	C713.769592,920.621582 699.048645,935.591980 684.126404,950.358765 
	C678.628784,955.799072 676.966736,967.991638 683.062439,974.647644 
	C692.461731,984.911011 700.727783,996.205688 709.629150,1006.934570 
	C713.625793,1011.751770 714.152710,1016.940186 712.143738,1022.552124 
	C708.376526,1033.075684 704.507629,1043.562988 700.647949,1054.053101 
	C698.405273,1060.148193 694.772644,1064.558228 687.667114,1065.013184 
	C672.953125,1065.955444 658.247009,1067.019653 643.536133,1068.010864 
	C636.497986,1068.485107 629.001770,1074.272095 628.981079,1082.024536 
	C628.920105,1104.851318 628.774292,1127.679443 628.979126,1150.504150 
	C629.038757,1157.154785 632.360962,1162.610352 639.138184,1164.136597 
	C646.107178,1165.706177 653.324158,1166.297485 660.466309,1166.944580 
	C669.793518,1167.789673 679.189941,1167.956055 688.486572,1169.023926 
	C694.007324,1169.657959 698.427429,1172.951660 699.851379,1178.578125 
	C702.636597,1189.583496 706.993225,1199.817871 712.981873,1209.453125 
	C716.091248,1214.455688 715.509033,1220.479980 711.928467,1224.530762 
	C703.420532,1234.156006 694.974060,1243.842651 686.225342,1253.246460 
	C675.314209,1264.974731 675.397278,1274.241943 686.475647,1285.059082 
	C700.297119,1298.554688 714.124329,1312.067871 727.371582,1326.117798 
	C733.564758,1332.686035 744.639099,1334.082886 752.887512,1326.641846 
	C763.586182,1316.990601 774.804565,1307.911499 785.920288,1298.732544 
	C787.126160,1297.736816 789.492737,1296.852417 790.712585,1297.364746 
	C805.734436,1303.673584 820.659363,1310.215576 835.546997,1316.837280 
	C836.637756,1317.322388 837.904541,1318.844360 837.980286,1319.959595 
	C838.830322,1332.474487 839.516174,1345.001709 840.120544,1357.531616 
	C840.296692,1361.183472 839.879211,1364.864624 840.070435,1368.514648 
	C840.656738,1379.708008 841.859070,1390.888306 841.970459,1402.082153 
	C842.091431,1414.234131 848.249023,1424.372803 859.727661,1427.747192 
	C864.541565,1429.162598 869.867798,1429.129761 874.970276,1429.216797 
	C894.284363,1429.546021 913.602783,1429.808838 932.918457,1429.747070 
	C938.353455,1429.729614 943.784668,1428.517212 949.953552,1427.576416 
M836.509216,1589.975220 
	C837.679932,1591.145874 838.853394,1592.313599 840.020996,1593.487549 
	C847.738281,1601.245972 857.468567,1605.474243 867.994446,1605.767700 
	C891.128967,1606.412720 914.296692,1605.990845 937.448792,1605.775757 
	C942.156921,1605.732178 946.923889,1605.008301 951.546936,1604.040283 
	C971.395935,1599.884033 986.426147,1581.178711 987.005920,1562.533691 
	C987.766602,1538.071289 988.285461,1513.541870 987.345154,1489.101440 
	C986.252930,1460.712158 965.734253,1442.398560 937.201904,1442.398193 
	C915.709351,1442.397949 894.211670,1442.137695 872.727478,1442.562256 
	C866.540588,1442.684326 860.060120,1443.915283 854.289978,1446.134766 
	C837.576294,1452.563477 826.432129,1465.044189 825.483887,1482.852051 
	C824.068542,1509.431274 824.940918,1536.139526 825.087708,1562.791504 
	C825.144104,1573.016724 829.576904,1581.719727 836.509216,1589.975220 
M1126.104126,936.462097 
	C1120.865479,940.680420 1117.661621,946.748291 1118.281860,952.847290 
	C1119.880615,968.566711 1133.923950,976.440369 1148.106201,968.303101 
	C1160.651855,961.104980 1173.135986,953.799744 1185.678833,946.596924 
	C1194.501465,941.530518 1203.759644,936.944946 1208.352417,927.065857 
	C1209.243896,925.148438 1209.905884,922.658508 1209.496460,920.675720 
	C1206.171631,904.573181 1190.697388,899.845032 1178.468994,906.408264 
	C1160.959106,915.806213 1143.966187,926.167236 1126.104126,936.462097 
M1194.551636,1275.547363 
	C1195.154541,1275.269287 1195.749634,1274.972778 1196.361450,1274.715942 
	C1204.449097,1271.322632 1208.224121,1264.768555 1208.458130,1256.469849 
	C1208.664673,1249.138794 1204.778076,1243.634888 1198.386475,1239.991333 
	C1193.798462,1237.375732 1189.207642,1234.764771 1184.626587,1232.136719 
	C1172.022705,1224.906616 1159.560669,1217.413940 1146.777832,1210.515747 
	C1136.894653,1205.182129 1125.729614,1208.285034 1121.159790,1217.085083 
	C1116.548218,1225.965332 1118.526245,1238.620117 1128.883911,1244.421631 
	C1142.866333,1252.253418 1156.481812,1260.738892 1170.438721,1268.618042 
	C1177.602173,1272.662354 1184.640137,1277.739502 1194.551636,1275.547363 
M567.420593,959.974548 
	C573.043335,963.195374 578.557922,966.630981 584.336914,969.541626 
	C587.008179,970.887024 590.316833,972.169250 593.126160,971.814575 
	C601.853882,970.712524 608.267456,965.595947 610.843079,957.366760 
	C613.521851,948.807739 610.454712,940.850037 602.432678,936.128601 
	C584.679077,925.679626 566.797668,915.436829 548.768372,905.471741 
	C539.583984,900.395508 529.366699,903.475708 524.576904,912.437256 
	C518.877686,923.100159 520.048645,930.529785 530.512878,937.858643 
	C542.051025,945.939453 554.577515,952.609070 567.420593,959.974548 
M523.966125,1247.597656 
	C518.857239,1256.841187 521.069946,1263.394043 526.652405,1270.086426 
	C532.126587,1276.649048 539.421875,1277.202515 546.949890,1274.811768 
	C550.319580,1273.741577 553.319214,1271.463135 556.435974,1269.645996 
	C572.228455,1260.438721 588.117615,1251.389771 603.741577,1241.904175 
	C612.575134,1236.541138 614.218750,1226.076782 608.367432,1216.804688 
	C602.952209,1208.223755 591.729309,1205.307739 583.299255,1210.187256 
	C570.592285,1217.542480 557.695923,1224.583130 545.162842,1232.221558 
	C537.894043,1236.651733 529.428284,1239.505737 523.966125,1247.597656 
M857.843445,777.455933 
	C857.844360,778.787231 857.879517,780.119568 857.841064,781.449768 
	C857.367676,797.812378 875.386780,803.041443 886.297241,796.618530 
	C893.380310,792.448730 895.827576,785.473816 895.842957,777.561157 
	C895.878479,759.256287 895.941040,740.950500 895.772583,722.647095 
	C895.743042,719.433167 894.968384,716.124756 893.977478,713.039978 
	C890.909058,703.487854 879.563965,700.229675 873.247925,701.481018 
	C862.842773,703.542297 857.571533,710.472534 857.759644,721.577332 
	C858.069458,739.869751 857.843445,758.171265 857.843445,777.455933 
z"/>
<path fill="#554BF4" opacity="1.000000" stroke="none" 
	d="
M949.585571,1427.714600 
	C943.784668,1428.517212 938.353455,1429.729614 932.918457,1429.747070 
	C913.602783,1429.808838 894.284363,1429.546021 874.970276,1429.216797 
	C869.867798,1429.129761 864.541565,1429.162598 859.727661,1427.747192 
	C848.249023,1424.372803 842.091431,1414.234131 841.970459,1402.082153 
	C841.859070,1390.888306 840.656738,1379.708008 840.070435,1368.514648 
	C839.879211,1364.864624 840.296692,1361.183472 840.120544,1357.531616 
	C839.516174,1345.001709 838.830322,1332.474487 837.980286,1319.959595 
	C837.904541,1318.844360 836.637756,1317.322388 835.546997,1316.837280 
	C820.659363,1310.215576 805.734436,1303.673584 790.712585,1297.364746 
	C789.492737,1296.852417 787.126160,1297.736816 785.920288,1298.732544 
	C774.804565,1307.911499 763.586182,1316.990601 752.887512,1326.641846 
	C744.639099,1334.082886 733.564758,1332.686035 727.371582,1326.117798 
	C714.124329,1312.067871 700.297119,1298.554688 686.475647,1285.059082 
	C675.397278,1274.241943 675.314209,1264.974731 686.225342,1253.246460 
	C694.974060,1243.842651 703.420532,1234.156006 711.928467,1224.530762 
	C715.509033,1220.479980 716.091248,1214.455688 712.981873,1209.453125 
	C706.993225,1199.817871 702.636597,1189.583496 699.851379,1178.578125 
	C698.427429,1172.951660 694.007324,1169.657959 688.486572,1169.023926 
	C679.189941,1167.956055 669.793518,1167.789673 660.466309,1166.944580 
	C653.324158,1166.297485 646.107178,1165.706177 639.138184,1164.136597 
	C632.360962,1162.610352 629.038757,1157.154785 628.979126,1150.504150 
	C628.774292,1127.679443 628.920105,1104.851318 628.981079,1082.024536 
	C629.001770,1074.272095 636.497986,1068.485107 643.536133,1068.010864 
	C658.247009,1067.019653 672.953125,1065.955444 687.667114,1065.013184 
	C694.772644,1064.558228 698.405273,1060.148193 700.647949,1054.053101 
	C704.507629,1043.562988 708.376526,1033.075684 712.143738,1022.552124 
	C714.152710,1016.940186 713.625793,1011.751770 709.629150,1006.934570 
	C700.727783,996.205688 692.461731,984.911011 683.062439,974.647644 
	C676.966736,967.991638 678.628784,955.799072 684.126404,950.358765 
	C699.048645,935.591980 713.769592,920.621582 728.701782,905.864929 
	C735.007629,899.633362 746.099854,900.684814 753.877136,907.412415 
	C763.520325,915.754211 773.422119,923.799316 783.287231,931.881104 
	C787.992554,935.735779 792.991150,935.884644 798.531311,933.235352 
	C809.459656,928.009521 820.497620,922.996826 831.623901,918.206543 
	C839.143127,914.969055 841.377625,908.743713 842.190735,901.475464 
	C843.553040,889.296936 844.617432,877.078125 846.299377,864.944519 
	C847.548401,855.934326 856.971863,848.265137 866.273560,848.009033 
	C896.969299,847.163818 926.363220,853.133057 954.636047,864.958313 
	C981.833557,876.333862 1005.882263,892.444153 1026.550781,913.427246 
	C1054.517212,941.819275 1073.564209,975.464539 1083.587769,1013.980835 
	C1087.869751,1030.434448 1089.848877,1047.287109 1090.175659,1064.442505 
	C1090.784668,1096.419312 1085.419678,1127.110229 1072.894653,1156.487183 
	C1064.160522,1176.972656 1052.631592,1195.813599 1037.872314,1212.556030 
	C1024.948975,1227.215698 1010.608215,1240.622925 1000.437744,1257.644165 
	C988.534973,1277.564209 980.557434,1298.796875 976.966248,1321.696777 
	C974.644226,1336.503174 972.045959,1351.275269 970.150696,1366.136597 
	C968.645569,1377.938232 968.168335,1389.867188 966.960327,1401.711670 
	C965.788940,1413.196777 961.694092,1422.949829 949.585571,1427.714600 
M723.194580,972.285889 
	C730.877686,981.495117 738.597961,990.673706 746.231506,999.923767 
	C751.764893,1006.628967 753.258789,1014.073242 749.963623,1022.295654 
	C742.112244,1041.886963 734.246704,1061.472656 726.445557,1081.083862 
	C723.403809,1088.730347 718.057922,1093.319580 709.748291,1094.129639 
	C702.957214,1094.791748 696.154541,1095.335693 689.364380,1096.006470 
	C679.972046,1096.933960 670.586670,1097.931519 660.896851,1098.930176 
	C660.896851,1107.724609 661.047485,1116.024658 660.848938,1124.316284 
	C660.691528,1130.889771 661.179504,1133.973633 670.626099,1135.105347 
	C683.013977,1136.589478 695.484009,1137.385986 707.917664,1138.489746 
	C717.769348,1139.364258 723.687134,1144.560547 727.173767,1153.949341 
	C734.059814,1172.492188 741.480469,1190.848145 749.148804,1209.084351 
	C753.620728,1219.718994 752.877808,1226.957275 745.208679,1235.641479 
	C735.644104,1246.472046 726.195923,1257.405640 716.459900,1268.566895 
	C725.856018,1276.754150 734.824158,1284.568481 743.957275,1292.526611 
	C754.612732,1283.248657 764.887939,1274.515747 774.910522,1265.501831 
	C781.943909,1259.176392 789.229248,1257.843506 797.727539,1262.434692 
	C816.923767,1272.805542 836.694275,1281.851562 857.421204,1288.862061 
	C867.336548,1292.215698 872.529724,1299.964233 872.958374,1310.557373 
	C873.691833,1328.683472 874.278870,1346.815552 875.051453,1364.939819 
	C875.446716,1374.212402 876.110840,1383.473755 876.657654,1392.812134 
	C895.075745,1392.812134 912.987122,1392.812134 930.402039,1392.812134 
	C933.961548,1367.879517 937.094543,1343.286865 941.046631,1318.826660 
	C948.310486,1273.869629 967.483398,1234.609375 999.031067,1201.635986 
	C1009.529846,1190.662720 1020.065979,1179.758789 1027.795288,1166.579224 
	C1047.599609,1132.809570 1056.849854,1096.484985 1054.277344,1057.232422 
	C1052.632202,1032.130493 1046.428955,1008.269287 1034.857422,986.006226 
	C1008.303772,934.918884 966.877075,902.366516 910.958557,888.678833 
	C899.766235,885.939148 888.139343,884.974548 876.142334,883.102478 
	C874.975159,897.470703 873.811951,910.534729 872.883850,923.615540 
	C872.148926,933.974060 866.896973,940.751160 857.893005,944.620911 
	C838.507629,952.952393 819.265503,961.631470 800.130554,970.524841 
	C792.063538,974.274048 783.739319,973.938232 776.773499,968.249878 
	C772.387634,964.668335 768.168274,960.883789 763.811401,957.265808 
	C756.833740,951.471436 749.804138,945.739685 743.401489,940.478577 
	C734.638184,949.305847 726.450256,957.553589 718.030396,966.034851 
	C719.388306,967.646851 721.092957,969.670471 723.194580,972.285889 
z"/>
<path fill="#554BF4" opacity="1.000000" stroke="none" 
	d="
M836.251221,1589.728638 
	C829.576904,1581.719727 825.144104,1573.016724 825.087708,1562.791504 
	C824.940918,1536.139526 824.068542,1509.431274 825.483887,1482.852051 
	C826.432129,1465.044189 837.576294,1452.563477 854.289978,1446.134766 
	C860.060120,1443.915283 866.540588,1442.684326 872.727478,1442.562256 
	C894.211670,1442.137695 915.709351,1442.397949 937.201904,1442.398193 
	C965.734253,1442.398560 986.252930,1460.712158 987.345154,1489.101440 
	C988.285461,1513.541870 987.766602,1538.071289 987.005920,1562.533691 
	C986.426147,1581.178711 971.395935,1599.884033 951.546936,1604.040283 
	C946.923889,1605.008301 942.156921,1605.732178 937.448792,1605.775757 
	C914.296692,1605.990845 891.128967,1606.412720 867.994446,1605.767700 
	C857.468567,1605.474243 847.738281,1601.245972 840.020996,1593.487549 
	C838.853394,1592.313599 837.679932,1591.145874 836.251221,1589.728638 
M857.873230,1563.213501 
	C860.567871,1570.328369 865.806641,1573.451416 873.317017,1573.426514 
	C894.974060,1573.354492 916.631592,1573.420044 938.288879,1573.393311 
	C949.427307,1573.379517 955.119690,1567.664795 955.137939,1556.443115 
	C955.172974,1534.952393 955.170593,1513.461792 955.139221,1491.971069 
	C955.122314,1480.401978 949.599060,1474.693604 938.060547,1474.637451 
	C916.736938,1474.533447 895.411987,1474.528320 874.088501,1474.640259 
	C862.687500,1474.700073 857.011353,1480.618774 857.004639,1492.026123 
	C856.992126,1513.350220 856.982727,1534.674438 857.029358,1555.998413 
	C857.034058,1558.137329 857.432678,1560.275513 857.873230,1563.213501 
z"/>
<path fill="#554BF4" opacity="1.000000" stroke="none" 
	d="
M1126.428223,936.289551 
	C1143.966187,926.167236 1160.959106,915.806213 1178.468994,906.408264 
	C1190.697388,899.845032 1206.171631,904.573181 1209.496460,920.675720 
	C1209.905884,922.658508 1209.243896,925.148438 1208.352417,927.065857 
	C1203.759644,936.944946 1194.501465,941.530518 1185.678833,946.596924 
	C1173.135986,953.799744 1160.651855,961.104980 1148.106201,968.303101 
	C1133.923950,976.440369 1119.880615,968.566711 1118.281860,952.847290 
	C1117.661621,946.748291 1120.865479,940.680420 1126.428223,936.289551 
z"/>
<path fill="#554BF4" opacity="1.000000" stroke="none" 
	d="
M1194.142578,1275.634277 
	C1184.640137,1277.739502 1177.602173,1272.662354 1170.438721,1268.618042 
	C1156.481812,1260.738892 1142.866333,1252.253418 1128.883911,1244.421631 
	C1118.526245,1238.620117 1116.548218,1225.965332 1121.159790,1217.085083 
	C1125.729614,1208.285034 1136.894653,1205.182129 1146.777832,1210.515747 
	C1159.560669,1217.413940 1172.022705,1224.906616 1184.626587,1232.136719 
	C1189.207642,1234.764771 1193.798462,1237.375732 1198.386475,1239.991333 
	C1204.778076,1243.634888 1208.664673,1249.138794 1208.458130,1256.469849 
	C1208.224121,1264.768555 1204.449097,1271.322632 1196.361450,1274.715942 
	C1195.749634,1274.972778 1195.154541,1275.269287 1194.142578,1275.634277 
z"/>
<path fill="#554BF4" opacity="1.000000" stroke="none" 
	d="
M567.046997,959.934021 
	C554.577515,952.609070 542.051025,945.939453 530.512878,937.858643 
	C520.048645,930.529785 518.877686,923.100159 524.576904,912.437256 
	C529.366699,903.475708 539.583984,900.395508 548.768372,905.471741 
	C566.797668,915.436829 584.679077,925.679626 602.432678,936.128601 
	C610.454712,940.850037 613.521851,948.807739 610.843079,957.366760 
	C608.267456,965.595947 601.853882,970.712524 593.126160,971.814575 
	C590.316833,972.169250 587.008179,970.887024 584.336914,969.541626 
	C578.557922,966.630981 573.043335,963.195374 567.046997,959.934021 
z"/>
<path fill="#554BF4" opacity="1.000000" stroke="none" 
	d="
M524.074463,1247.236206 
	C529.428284,1239.505737 537.894043,1236.651733 545.162842,1232.221558 
	C557.695923,1224.583130 570.592285,1217.542480 583.299255,1210.187256 
	C591.729309,1205.307739 602.952209,1208.223755 608.367432,1216.804688 
	C614.218750,1226.076782 612.575134,1236.541138 603.741577,1241.904175 
	C588.117615,1251.389771 572.228455,1260.438721 556.435974,1269.645996 
	C553.319214,1271.463135 550.319580,1273.741577 546.949890,1274.811768 
	C539.421875,1277.202515 532.126587,1276.649048 526.652405,1270.086426 
	C521.069946,1263.394043 518.857239,1256.841187 524.074463,1247.236206 
z"/>
<path fill="#554BF4" opacity="1.000000" stroke="none" 
	d="
M857.843384,776.962402 
	C857.843445,758.171265 858.069458,739.869751 857.759644,721.577332 
	C857.571533,710.472534 862.842773,703.542297 873.247925,701.481018 
	C879.563965,700.229675 890.909058,703.487854 893.977478,713.039978 
	C894.968384,716.124756 895.743042,719.433167 895.772583,722.647095 
	C895.941040,740.950500 895.878479,759.256287 895.842957,777.561157 
	C895.827576,785.473816 893.380310,792.448730 886.297241,796.618530 
	C875.386780,803.041443 857.367676,797.812378 857.841064,781.449768 
	C857.879517,780.119568 857.844360,778.787231 857.843384,776.962402 
z"/>
<path fill="#FFFEFF" opacity="1.000000" stroke="none" 
	d="
M722.996094,971.989990 
	C721.092957,969.670471 719.388306,967.646851 718.030396,966.034851 
	C726.450256,957.553589 734.638184,949.305847 743.401489,940.478577 
	C749.804138,945.739685 756.833740,951.471436 763.811401,957.265808 
	C768.168274,960.883789 772.387634,964.668335 776.773499,968.249878 
	C783.739319,973.938232 792.063538,974.274048 800.130554,970.524841 
	C819.265503,961.631470 838.507629,952.952393 857.893005,944.620911 
	C866.896973,940.751160 872.148926,933.974060 872.883850,923.615540 
	C873.811951,910.534729 874.975159,897.470703 876.142334,883.102478 
	C888.139343,884.974548 899.766235,885.939148 910.958557,888.678833 
	C966.877075,902.366516 1008.303772,934.918884 1034.857422,986.006226 
	C1046.428955,1008.269287 1052.632202,1032.130493 1054.277344,1057.232422 
	C1056.849854,1096.484985 1047.599609,1132.809570 1027.795288,1166.579224 
	C1020.065979,1179.758789 1009.529846,1190.662720 999.031067,1201.635986 
	C967.483398,1234.609375 948.310486,1273.869629 941.046631,1318.826660 
	C937.094543,1343.286865 933.961548,1367.879517 930.402039,1392.812134 
	C912.987122,1392.812134 895.075745,1392.812134 876.657654,1392.812134 
	C876.110840,1383.473755 875.446716,1374.212402 875.051453,1364.939819 
	C874.278870,1346.815552 873.691833,1328.683472 872.958374,1310.557373 
	C872.529724,1299.964233 867.336548,1292.215698 857.421204,1288.862061 
	C836.694275,1281.851562 816.923767,1272.805542 797.727539,1262.434692 
	C789.229248,1257.843506 781.943909,1259.176392 774.910522,1265.501831 
	C764.887939,1274.515747 754.612732,1283.248657 743.957275,1292.526611 
	C734.824158,1284.568481 725.856018,1276.754150 716.459900,1268.566895 
	C726.195923,1257.405640 735.644104,1246.472046 745.208679,1235.641479 
	C752.877808,1226.957275 753.620728,1219.718994 749.148804,1209.084351 
	C741.480469,1190.848145 734.059814,1172.492188 727.173767,1153.949341 
	C723.687134,1144.560547 717.769348,1139.364258 707.917664,1138.489746 
	C695.484009,1137.385986 683.013977,1136.589478 670.626099,1135.105347 
	C661.179504,1133.973633 660.691528,1130.889771 660.848938,1124.316284 
	C661.047485,1116.024658 660.896851,1107.724609 660.896851,1098.930176 
	C670.586670,1097.931519 679.972046,1096.933960 689.364380,1096.006470 
	C696.154541,1095.335693 702.957214,1094.791748 709.748291,1094.129639 
	C718.057922,1093.319580 723.403809,1088.730347 726.445557,1081.083862 
	C734.246704,1061.472656 742.112244,1041.886963 749.963623,1022.295654 
	C753.258789,1014.073242 751.764893,1006.628967 746.231506,999.923767 
	C738.597961,990.673706 730.877686,981.495117 722.996094,971.989990 
M788.968872,1197.524292 
	C808.464539,1221.880371 833.340088,1237.911987 863.543579,1245.677490 
	C877.248230,1249.201172 891.002014,1249.817871 904.793335,1246.576782 
	C904.793335,1159.590576 904.793335,1072.978882 904.793335,985.925232 
	C892.385803,984.720764 880.255188,983.649475 868.260742,986.083923 
	C807.404785,998.435608 762.062988,1051.659912 760.043457,1113.612671 
	C759.026672,1144.803955 769.837341,1172.324951 788.968872,1197.524292 
z"/>
<path fill="#FEFEFF" opacity="1.000000" stroke="none" 
	d="
M857.760864,1562.813721 
	C857.432678,1560.275513 857.034058,1558.137329 857.029358,1555.998413 
	C856.982727,1534.674438 856.992126,1513.350220 857.004639,1492.026123 
	C857.011353,1480.618774 862.687500,1474.700073 874.088501,1474.640259 
	C895.411987,1474.528320 916.736938,1474.533447 938.060547,1474.637451 
	C949.599060,1474.693604 955.122314,1480.401978 955.139221,1491.971069 
	C955.170593,1513.461792 955.172974,1534.952393 955.137939,1556.443115 
	C955.119690,1567.664795 949.427307,1573.379517 938.288879,1573.393311 
	C916.631592,1573.420044 894.974060,1573.354492 873.317017,1573.426514 
	C865.806641,1573.451416 860.567871,1570.328369 857.760864,1562.813721 
z"/>
<path fill="#554BF4" opacity="1.000000" stroke="none" 
	d="
M788.742554,1197.250244 
	C769.837341,1172.324951 759.026672,1144.803955 760.043457,1113.612671 
	C762.062988,1051.659912 807.404785,998.435608 868.260742,986.083923 
	C880.255188,983.649475 892.385803,984.720764 904.793335,985.925232 
	C904.793335,1072.978882 904.793335,1159.590576 904.793335,1246.576782 
	C891.002014,1249.817871 877.248230,1249.201172 863.543579,1245.677490 
	C833.340088,1237.911987 808.464539,1221.880371 788.742554,1197.250244 
M795.220825,1088.882202 
	C787.629211,1118.829102 791.454224,1147.028076 808.776855,1172.856201 
	C823.393677,1194.649902 843.765381,1208.518188 869.246704,1214.772461 
	C871.816223,1215.403076 875.127014,1217.229736 875.112976,1211.520874 
	C874.959290,1149.070923 875.007141,1086.620605 874.997314,1024.170288 
	C874.996338,1017.984192 873.604980,1016.856689 867.519653,1018.561646 
	C831.014954,1028.789307 807.134277,1052.123413 795.220825,1088.882202 
z"/>
<path fill="#FFFEFF" opacity="1.000000" stroke="none" 
	d="
M795.359558,1088.500366 
	C807.134277,1052.123413 831.014954,1028.789307 867.519653,1018.561646 
	C873.604980,1016.856689 874.996338,1017.984192 874.997314,1024.170288 
	C875.007141,1086.620605 874.959290,1149.070923 875.112976,1211.520874 
	C875.127014,1217.229736 871.816223,1215.403076 869.246704,1214.772461 
	C843.765381,1208.518188 823.393677,1194.649902 808.776855,1172.856201 
	C791.454224,1147.028076 787.629211,1118.829102 795.359558,1088.500366 
z"/>
</svg>